# xmcd
#
# Track frame offsets:
#	150
#	16877
#	42193
#	65371
#	107047
#	146431
#	172936
#	176048
#	180564
#	206227
#	243480
#	287455
#	317240
#
# Disc length: 4643 seconds
#
# Revision: 2
# Processed by: cddbd v1.5.1PL2 Copyright (c) Steve Scherf et al.
# Submitted via: EasyCDDAExtractor 8.0.2.1
#
DISCID=b412210d
DTITLE=Black Sabbath - Sleep Train Amphitheatre Maryville 15-08-05
DYEAR=2005
DGENRE=Hard Rock
TTITLE0=Sabbath Medley
TTITLE1=NIB
TTITLE2=After Forever
TTITLE3=War Pigs
TTITLE4=Dirty Women
TTITLE5=Fairies Wear Boots
TTITLE6=Symptom Of The Universe
TTITLE7=Sweet Leaf
TTITLE8=Electric Funeral
TTITLE9=Iron Man
TTITLE10=Black Sabbath
TTITLE11=Paranoid
TTITLE12=Children Of The Grave
EXTD=
EXTT0=
EXTT1=
EXTT2=
EXTT3=
EXTT4=
EXTT5=
EXTT6=
EXTT7=
EXTT8=
EXTT9=
EXTT10=
EXTT11=
EXTT12=
PLAYORDER=
